<?xml version="1.0" encoding="utf-8"?>
<!-- Generator: Adobe Illustrator 23.0.2, SVG Export Plug-In . SVG Version: 6.00 Build 0)  -->
<svg version="1.1" id="Layer_1" xmlns="http://www.w3.org/2000/svg" xmlns:xlink="http://www.w3.org/1999/xlink" x="0px" y="0px"
	 viewBox="0 0 55.6 57.7" style="enable-background:new 0 0 55.6 57.7;" xml:space="preserve">
<style type="text/css">
	.st0{fill:url(#SVGID_1_);}
	.st1{fill:url(#SVGID_2_);}
	.st2{fill:url(#SVGID_3_);}
	.st3{fill:#FFFFFF;}
</style>
<g>
	
		<linearGradient id="SVGID_1_" gradientUnits="userSpaceOnUse" x1="1.1" y1="30" x2="55.5811" y2="30" gradientTransform="matrix(1 0 0 -1 0 60)">
		<stop  offset="2.016760e-02" style="stop-color:#0B6AF8"/>
		<stop  offset="0.3065" style="stop-color:#325BF5"/>
		<stop  offset="0.9445" style="stop-color:#9334EE"/>
		<stop  offset="0.9944" style="stop-color:#9B31ED"/>
	</linearGradient>
	<ellipse class="st0" cx="28.3" cy="30" rx="27.2" ry="27.8"/>
	
		<linearGradient id="SVGID_2_" gradientUnits="userSpaceOnUse" x1="-7.2257" y1="-2.2257" x2="52.7817" y2="57.7817" gradientTransform="matrix(1 0 0 -1 0 60)">
		<stop  offset="0.1487" style="stop-color:#F80B37"/>
		<stop  offset="0.2184" style="stop-color:#F81435"/>
		<stop  offset="0.3345" style="stop-color:#F92E31"/>
		<stop  offset="0.4825" style="stop-color:#FA572A"/>
		<stop  offset="0.6568" style="stop-color:#FB9121"/>
		<stop  offset="0.8342" style="stop-color:#FCD316"/>
	</linearGradient>
	<ellipse class="st1" cx="27.2" cy="27.8" rx="27.2" ry="27.8"/>
</g>
<g>
	
		<linearGradient id="SVGID_3_" gradientUnits="userSpaceOnUse" x1="19.1476" y1="31.1" x2="37.3203" y2="31.1" gradientTransform="matrix(1 0 0 -1 0 60)">
		<stop  offset="2.016760e-02" style="stop-color:#0B6AF8"/>
		<stop  offset="0.3065" style="stop-color:#325BF5"/>
		<stop  offset="0.9445" style="stop-color:#9334EE"/>
		<stop  offset="0.9944" style="stop-color:#9B31ED"/>
	</linearGradient>
	<path class="st2" d="M35.7,27.3h-5.9v-5.9c0-0.9-0.7-1.6-1.6-1.6s-1.6,0.7-1.6,1.6v5.9h-5.9c-0.9,0-1.6,0.7-1.6,1.6
		s0.7,1.6,1.6,1.6h5.9v5.9c0,0.9,0.7,1.6,1.6,1.6s1.6-0.7,1.6-1.6v-5.9h5.9c0.9,0,1.6-0.7,1.6-1.6S36.6,27.3,35.7,27.3z"/>
	<path class="st3" d="M35.2,26.1h-5.9v-5.9c0-0.9-0.7-1.6-1.6-1.6s-1.6,0.7-1.6,1.6v5.9h-5.9c-0.9,0-1.6,0.7-1.6,1.6
		s0.7,1.6,1.6,1.6h5.9v5.9c0,0.9,0.7,1.6,1.6,1.6s1.6-0.7,1.6-1.6v-5.9h5.9c0.9,0,1.6-0.7,1.6-1.6S36.1,26.1,35.2,26.1z"/>
</g>
</svg>
