<?xml version="1.0" encoding="utf-8"?>
<!-- Generator: Adobe Illustrator 23.0.2, SVG Export Plug-In . SVG Version: 6.00 Build 0)  -->
<svg version="1.1" id="Layer_1" xmlns="http://www.w3.org/2000/svg" xmlns:xlink="http://www.w3.org/1999/xlink" x="0px" y="0px"
	 viewBox="0 0 42 35" style="enable-background:new 0 0 42 35;" xml:space="preserve">
<style type="text/css">
	.st0{fill:#D1D1D1;}
</style>
<g>
	<path class="st0" d="M36.12,2.09c-7.9-4.26-12.95,3.67-12.95,3.67s0-0.01-0.01-0.03L20.34,15l6.63-0.05l-5.66,18.9
		c1.31-0.95,14.13-10.24,16.54-13.66C40.39,16.58,45.85,7.33,36.12,2.09z"/>
	<path class="st0" d="M15.07,18.18L18.95,5.6C18.64,5.13,13.64-2.15,6,2c-9.71,5.28-4.22,14.51-1.67,18.11
		c2.55,3.6,16.7,13.68,16.7,13.68s0.03-0.03,0.1-0.09l1.86-16.22L15.07,18.18z"/>
</g>
</svg>
