<?xml version="1.0" encoding="utf-8"?>
<!-- Generator: Adobe Illustrator 23.0.2, SVG Export Plug-In . SVG Version: 6.00 Build 0)  -->
<svg version="1.1" id="Layer_1" xmlns="http://www.w3.org/2000/svg" xmlns:xlink="http://www.w3.org/1999/xlink" x="0px" y="0px"
	 viewBox="0 0 55.6 57.7" style="enable-background:new 0 0 55.6 57.7;" xml:space="preserve">
<style type="text/css">
	.st0{fill:url(#SVGID_1_);}
	.st1{fill:url(#SVGID_2_);}
	.st2{fill:none;stroke:url(#SVGID_3_);stroke-width:3;stroke-miterlimit:10;}
	.st3{fill:none;stroke:url(#SVGID_4_);stroke-width:3;stroke-miterlimit:10;}
	.st4{display:none;fill:none;stroke:url(#SVGID_5_);stroke-width:1.4927;stroke-miterlimit:10;}
	.st5{fill:none;stroke:#FFFFFF;stroke-width:3;}
	.st6{display:none;fill:none;stroke:#FFFFFF;stroke-width:1.4927;}
</style>
<g>
	
		<linearGradient id="SVGID_1_" gradientUnits="userSpaceOnUse" x1="1.1" y1="30" x2="55.5811" y2="30" gradientTransform="matrix(1 0 0 -1 0 60)">
		<stop  offset="2.016760e-02" style="stop-color:#0B6AF8"/>
		<stop  offset="0.3065" style="stop-color:#325BF5"/>
		<stop  offset="0.9445" style="stop-color:#9334EE"/>
		<stop  offset="0.9944" style="stop-color:#9B31ED"/>
	</linearGradient>
	<ellipse class="st0" cx="28.3" cy="30" rx="27.2" ry="27.8"/>
	
		<linearGradient id="SVGID_2_" gradientUnits="userSpaceOnUse" x1="-7.2257" y1="-2.2257" x2="52.7817" y2="57.7817" gradientTransform="matrix(1 0 0 -1 0 60)">
		<stop  offset="0.1487" style="stop-color:#F80B37"/>
		<stop  offset="0.2184" style="stop-color:#F81435"/>
		<stop  offset="0.3345" style="stop-color:#F92E31"/>
		<stop  offset="0.4825" style="stop-color:#FA572A"/>
		<stop  offset="0.6568" style="stop-color:#FB9121"/>
		<stop  offset="0.8342" style="stop-color:#FCD316"/>
	</linearGradient>
	<ellipse class="st1" cx="27.2" cy="27.8" rx="27.2" ry="27.8"/>
</g>
<linearGradient id="SVGID_3_" gradientUnits="userSpaceOnUse" x1="8.7693" y1="26.5756" x2="46.8925" y2="26.5756">
	<stop  offset="2.016760e-02" style="stop-color:#0B6AF8"/>
	<stop  offset="0.3065" style="stop-color:#325BF5"/>
	<stop  offset="0.9445" style="stop-color:#9334EE"/>
	<stop  offset="0.9944" style="stop-color:#9B31ED"/>
</linearGradient>
<path class="st2" d="M41,39.3H14.4c-2.3,0-4.2-1.9-4.2-4.2l0-12.8c0-2.3,1.9-4.1,4.2-4.1h5.7c0,0,1.9-3.4,2.2-3.9
	c0.3-0.6,0.6-0.5,0.6-0.5s9.2,0,9.7,0c0.5,0,0.7,0.4,0.7,0.4l2.4,3.8h5.4c2.3,0,4.2,1.9,4.2,4.2l-0.2,13
	C45.1,37.5,43.3,39.3,41,39.3z"/>
<linearGradient id="SVGID_4_" gradientUnits="userSpaceOnUse" x1="19.7892" y1="27.2677" x2="35.9244" y2="27.2677">
	<stop  offset="2.016760e-02" style="stop-color:#0B6AF8"/>
	<stop  offset="0.3065" style="stop-color:#325BF5"/>
	<stop  offset="0.9445" style="stop-color:#9334EE"/>
	<stop  offset="0.9944" style="stop-color:#9B31ED"/>
</linearGradient>
<circle class="st3" cx="27.9" cy="27.3" r="6.6"/>
<linearGradient id="SVGID_5_" gradientUnits="userSpaceOnUse" x1="24.5678" y1="30.0146" x2="34.0559" y2="30.0146">
	<stop  offset="2.016760e-02" style="stop-color:#0B6AF8"/>
	<stop  offset="0.3065" style="stop-color:#325BF5"/>
	<stop  offset="0.9445" style="stop-color:#9334EE"/>
	<stop  offset="0.9944" style="stop-color:#9B31ED"/>
</linearGradient>
<path class="st4" d="M25.1,32.7c0.9,0.9,2.1,1.4,3.4,1.4c2.7,0,4.8-2.2,4.8-4.8c0-1.4-0.6-2.7-1.6-3.6"/>
<path class="st5" d="M39.7,37.9H13.2C10.9,37.9,9,36,9,33.7l0-12.8c0-2.3,1.9-4.1,4.2-4.1h5.7c0,0,1.9-3.4,2.2-3.9s0.6-0.5,0.6-0.5
	s9.2,0,9.7,0c0.5,0,0.7,0.4,0.7,0.4l2.4,3.8H40c2.3,0,4.2,1.9,4.2,4.2l-0.2,13C43.9,36.1,42,37.9,39.7,37.9z"/>
<circle class="st5" cx="26.9" cy="26.2" r="6.6"/>
<path class="st6" d="M24.1,31.5c0.9,0.9,2.1,1.4,3.4,1.4c2.7,0,4.8-2.2,4.8-4.8c0-1.4-0.6-2.7-1.6-3.6"/>
</svg>
