<?xml version="1.0" encoding="utf-8"?>
<!-- Generator: Adobe Illustrator 23.0.2, SVG Export Plug-In . SVG Version: 6.00 Build 0)  -->
<svg version="1.1" id="Layer_1" xmlns="http://www.w3.org/2000/svg" xmlns:xlink="http://www.w3.org/1999/xlink" x="0px" y="0px"
	 viewBox="0 0 61.9 61.7" style="enable-background:new 0 0 61.9 61.7;" xml:space="preserve">
<style type="text/css">
	.st0{fill:#C6E50E;}
</style>
<g>
	<circle class="st0" cx="30.8" cy="31" r="30.5"/>
	<path d="M43.5,21.6c-0.2-0.2-0.4-0.3-0.7-0.3H18l-1-2.8c-0.2-0.5-0.7-0.8-1.2-0.6c-0.5,0.2-0.8,0.7-0.6,1.2l1.2,3.4c0,0,0,0,0,0
		l2.2,6.5l2.5,7.2c0.3,1,1.3,1.7,2.3,1.7h16.1c0.5,0,0.9-0.4,0.9-0.9S40.1,36,39.6,36H23.5c-0.3,0-0.5-0.2-0.6-0.4l-0.7-2.1h18.7
		c0.5,0,0.8-0.3,0.9-0.8l1.9-10.4C43.7,22.1,43.6,21.9,43.5,21.6z M40.1,31.7H21.5l-1.9-5.5l-1-3h23L40.1,31.7z"/>
	<circle cx="23.9" cy="41.1" r="1.9"/>
	<circle cx="37.4" cy="41.4" r="1.9"/>
</g>
</svg>
