<?xml version="1.0" encoding="utf-8"?>
<!-- Generator: Adobe Illustrator 23.0.2, SVG Export Plug-In . SVG Version: 6.00 Build 0)  -->
<svg version="1.1" id="Layer_1" xmlns="http://www.w3.org/2000/svg" xmlns:xlink="http://www.w3.org/1999/xlink" x="0px" y="0px"
	 viewBox="0 0 19.2 19.1" style="enable-background:new 0 0 19.2 19.1;" xml:space="preserve">
<style type="text/css">
	.st0{fill:url(#SVGID_1_);}
	.st1{fill:url(#SVGID_2_);}
	.st2{fill:url(#SVGID_3_);}
	.st3{fill:#FFFFFF;}
</style>
<g>
	<linearGradient id="SVGID_1_" gradientUnits="userSpaceOnUse" x1="2.0415" y1="10.5253" x2="19.2357" y2="10.5253">
		<stop  offset="2.016760e-02" style="stop-color:#416BB3"/>
		<stop  offset="0.6973" style="stop-color:#6F5DA8"/>
		<stop  offset="0.9944" style="stop-color:#7F54A2"/>
	</linearGradient>
	<path class="st0" d="M17,19.1H4.2c-1.2,0-2.2-1-2.2-2.2V4.1c0-1.2,1-2.2,2.2-2.2H17c1.2,0,2.2,1,2.2,2.2v12.8
		C19.2,18.1,18.3,19.1,17,19.1z"/>
	<linearGradient id="SVGID_2_" gradientUnits="userSpaceOnUse" x1="-2.9839" y1="18.979" x2="20.4672" y2="-2.0439">
		<stop  offset="0" style="stop-color:#EE1E3B"/>
		<stop  offset="7.702813e-02" style="stop-color:#EE2E3B"/>
		<stop  offset="0.2052" style="stop-color:#EF4D3B"/>
		<stop  offset="0.3687" style="stop-color:#F17139"/>
		<stop  offset="0.5612" style="stop-color:#F49933"/>
		<stop  offset="0.7758" style="stop-color:#FBCD1C"/>
		<stop  offset="0.8021" style="stop-color:#FCD315"/>
	</linearGradient>
	<path class="st1" d="M15,17.2H2.2C1,17.2,0,16.2,0,15V2.2C0,1,1,0,2.2,0H15c1.2,0,2.2,1,2.2,2.2V15C17.2,16.2,16.2,17.2,15,17.2z"
		/>
	<linearGradient id="SVGID_3_" gradientUnits="userSpaceOnUse" x1="2.4462" y1="10.4902" x2="15.1402" y2="10.4902">
		<stop  offset="2.016760e-02" style="stop-color:#416BB3"/>
		<stop  offset="0.6973" style="stop-color:#6F5DA8"/>
		<stop  offset="0.9944" style="stop-color:#7F54A2"/>
	</linearGradient>
	<polygon class="st2" points="2.4,10.9 4.8,8.6 7.1,10.9 12.6,5.3 15.1,7.8 7.3,15.7 	"/>
	<g>
		<polygon class="st3" points="2.3,9.2 4.6,6.8 6.9,9.1 12.4,3.6 14.9,6.1 7.1,13.9 		"/>
	</g>
</g>
</svg>
