<?xml version="1.0" encoding="utf-8"?>
<!-- Generator: Adobe Illustrator 23.0.2, SVG Export Plug-In . SVG Version: 6.00 Build 0)  -->
<svg version="1.1" id="Layer_1" xmlns="http://www.w3.org/2000/svg" xmlns:xlink="http://www.w3.org/1999/xlink" x="0px" y="0px"
	 viewBox="0 0 55.6 57.7" style="enable-background:new 0 0 55.6 57.7;" xml:space="preserve">
<style type="text/css">
	.st0{fill:url(#SVGID_1_);}
	.st1{fill:url(#SVGID_2_);}
	.st2{fill:url(#SVGID_3_);}
	.st3{fill:url(#SVGID_4_);}
	.st4{fill:#FFFFFF;}
</style>
<g>
	<linearGradient id="SVGID_1_" gradientUnits="userSpaceOnUse" x1="1.0735" y1="29.9667" x2="55.5546" y2="29.9667">
		<stop  offset="2.016760e-02" style="stop-color:#0B6AF8"/>
		<stop  offset="0.3065" style="stop-color:#325BF5"/>
		<stop  offset="0.9445" style="stop-color:#9334EE"/>
		<stop  offset="0.9944" style="stop-color:#9B31ED"/>
	</linearGradient>
	<ellipse class="st0" cx="28.3" cy="30" rx="27.2" ry="27.8"/>
	<linearGradient id="SVGID_2_" gradientUnits="userSpaceOnUse" x1="-7.2168" y1="62.2347" x2="52.7907" y2="2.2272">
		<stop  offset="0.1487" style="stop-color:#F80B37"/>
		<stop  offset="0.2184" style="stop-color:#F81435"/>
		<stop  offset="0.3345" style="stop-color:#F92E31"/>
		<stop  offset="0.4825" style="stop-color:#FA572A"/>
		<stop  offset="0.6568" style="stop-color:#FB9121"/>
		<stop  offset="0.8342" style="stop-color:#FCD316"/>
	</linearGradient>
	<ellipse class="st1" cx="27.2" cy="27.8" rx="27.2" ry="27.8"/>
</g>
<g>
	<g>
		<linearGradient id="SVGID_3_" gradientUnits="userSpaceOnUse" x1="22.3607" y1="32.1723" x2="34.6773" y2="32.1723">
			<stop  offset="2.016760e-02" style="stop-color:#0B6AF8"/>
			<stop  offset="0.3065" style="stop-color:#325BF5"/>
			<stop  offset="0.9445" style="stop-color:#9334EE"/>
			<stop  offset="0.9944" style="stop-color:#9B31ED"/>
		</linearGradient>
		<path class="st2" d="M32.8,39.9h-8.5c-1,0-1.9-0.9-1.9-1.9V24.4h12.3V38C34.7,39.1,33.8,39.9,32.8,39.9z"/>
		<linearGradient id="SVGID_4_" gradientUnits="userSpaceOnUse" x1="21.2463" y1="21.8338" x2="35.7917" y2="21.8338">
			<stop  offset="2.016760e-02" style="stop-color:#0B6AF8"/>
			<stop  offset="0.3065" style="stop-color:#325BF5"/>
			<stop  offset="0.9445" style="stop-color:#9334EE"/>
			<stop  offset="0.9944" style="stop-color:#9B31ED"/>
		</linearGradient>
		<polygon class="st3" points="30.7,21.3 30.7,20.2 26.4,20.2 26.4,21.3 21.2,21.3 21.2,23.4 35.8,23.4 35.8,21.3 		"/>
	</g>
	<g>
		<path class="st4" d="M31.7,38.3h-8.5c-1,0-1.9-0.9-1.9-1.9V22.7h12.3v13.6C33.6,37.4,32.7,38.3,31.7,38.3z"/>
		<polygon class="st4" points="29.6,19.6 29.6,18.6 25.3,18.6 25.3,19.6 20.1,19.6 20.1,21.8 34.7,21.8 34.7,19.6 		"/>
	</g>
</g>
</svg>
