<?xml version="1.0" encoding="utf-8"?>
<!-- Generator: Adobe Illustrator 23.0.2, SVG Export Plug-In . SVG Version: 6.00 Build 0)  -->
<svg version="1.1" id="Layer_1" xmlns="http://www.w3.org/2000/svg" xmlns:xlink="http://www.w3.org/1999/xlink" x="0px" y="0px"
	 viewBox="0 0 172 69" style="enable-background:new 0 0 172 69;" xml:space="preserve">
<style type="text/css">
	.st0{opacity:0.84;}
	.st1{fill:#FFFFFF;}
</style>
<g>
	<g class="st0">
		<polygon points="37.94,19.32 37.94,7.24 18.98,7.24 16.24,7.24 5.25,7.24 5.25,66.85 18.98,66.85 18.98,41.85 36.57,41.85 
			36.57,29.76 18.98,29.76 18.98,19.32 		"/>
		<path d="M60.72,68.36c-9.17,0-16.6-7.43-16.6-16.6V22.6c0-9.17,7.43-16.6,16.6-16.6h4.71c9.17,0,16.6,7.43,16.6,16.6v29.17
			c0,9.17-7.43,16.6-16.6,16.6h-0.16c0-2.2-0.55-10.16-0.55-11.26c0-1.1,0.82-2.47,3.02-4.67c2.2-2.2,2.47-3.3,2.47-8.52
			s-1.65-20.88-1.65-20.88H67.2l0.55,21.15c0,0,0,1.1-0.82,1.1s-0.82-1.1-0.82-1.1l-0.55-21.15h-1.37v21.15c0,0-0.27,1.1-1.1,1.1
			c-0.82,0-0.82-1.1-0.82-1.1V23.03h-1.37l-0.82,21.43c0,0,0,0.82-0.82,0.82c-0.82,0-0.82-0.82-0.82-0.82l0.41-21.57h-1.1
			c0,0-1.65,18.13-1.65,23.08s2.2,6.04,2.2,6.04s2.75,2.47,3.3,4.4s-0.82,11.81-0.82,11.81L60.72,68.36z"/>
		<path d="M109.25,6.14h-4.71c-9.17,0-16.6,7.43-16.6,16.6V51.9c0,9.17,7.43,16.6,16.6,16.6h1.53c0,0,0-3.02,0.27-6.04
			c0.27-3.02,0.27-4.4-1.37-6.32c-1.65-1.92-5.91-4.14-6.87-9.07c-1.92-9.89,4.67-24.18,9.62-24.18c4.95,0,11.54,14.29,9.62,24.18
			c-0.96,4.92-5.22,7.14-6.87,9.07c-1.65,1.92-1.65,3.3-1.37,6.32c0.27,2.99,0.27,5.98,0.27,6.04c9.11-0.06,16.48-7.47,16.48-16.6
			V22.74C125.85,13.57,118.42,6.14,109.25,6.14z"/>
		<path d="M169.81,52.84c0,0,0-16.76,0-31.59S151.68,7.51,151.68,7.51h-18.68v59.34h18.68C171.18,66.85,169.81,52.84,169.81,52.84z
			 M156.07,24.27c0,0,0,18.68,0,25.55s-6.59,6.59-6.59,6.59h-2.47V18.23h2.47C156.9,18.23,156.07,24.27,156.07,24.27z"/>
	</g>
	<g>
		<g>
			<polygon class="st1" points="34.94,15.32 34.94,3.24 15.98,3.24 13.24,3.24 2.25,3.24 2.25,62.85 15.98,62.85 15.98,37.85 
				33.57,37.85 33.57,25.76 15.98,25.76 15.98,15.32 			"/>
			<path class="st1" d="M57.72,64.36c-9.17,0-16.6-7.43-16.6-16.6V18.6c0-9.17,7.43-16.6,16.6-16.6h4.71c9.17,0,16.6,7.43,16.6,16.6
				v29.17c0,9.17-7.43,16.6-16.6,16.6h-0.16c0-2.2-0.55-10.16-0.55-11.26c0-1.1,0.82-2.47,3.02-4.67c2.2-2.2,2.47-3.3,2.47-8.52
				s-1.65-20.88-1.65-20.88H64.2l0.55,21.15c0,0,0,1.1-0.82,1.1c-0.82,0-0.82-1.1-0.82-1.1l-0.55-21.15h-1.37v21.15
				c0,0-0.27,1.1-1.1,1.1c-0.82,0-0.82-1.1-0.82-1.1V19.03h-1.37l-0.82,21.43c0,0,0,0.82-0.82,0.82c-0.82,0-0.82-0.82-0.82-0.82
				l0.41-21.57h-1.1c0,0-1.65,18.13-1.65,23.08s2.2,6.04,2.2,6.04s2.75,2.47,3.3,4.4s-0.82,11.81-0.82,11.81L57.72,64.36z"/>
			<path class="st1" d="M106.25,2.14h-4.71c-9.17,0-16.6,7.43-16.6,16.6V47.9c0,9.17,7.43,16.6,16.6,16.6h1.53c0,0,0-3.02,0.27-6.04
				c0.27-3.02,0.27-4.4-1.37-6.32c-1.65-1.92-5.91-4.14-6.87-9.07c-1.92-9.89,4.67-24.18,9.62-24.18c4.95,0,11.54,14.29,9.62,24.18
				c-0.96,4.92-5.22,7.14-6.87,9.07c-1.65,1.92-1.65,3.3-1.37,6.32c0.27,2.99,0.27,5.98,0.27,6.04c9.11-0.06,16.48-7.47,16.48-16.6
				V18.74C122.85,9.57,115.42,2.14,106.25,2.14z"/>
			<path class="st1" d="M166.81,48.84c0,0,0-16.76,0-31.59S148.68,3.51,148.68,3.51h-18.68v59.34h18.68
				C168.18,62.85,166.81,48.84,166.81,48.84z M153.07,20.27c0,0,0,18.68,0,25.55s-6.59,6.59-6.59,6.59h-2.47V14.23h2.47
				C153.9,14.23,153.07,20.27,153.07,20.27z"/>
		</g>
	</g>
</g>
</svg>
