<?xml version="1.0" encoding="utf-8"?>
<!-- Generator: Adobe Illustrator 23.0.2, SVG Export Plug-In . SVG Version: 6.00 Build 0)  -->
<svg version="1.1" id="Layer_1" xmlns="http://www.w3.org/2000/svg" xmlns:xlink="http://www.w3.org/1999/xlink" x="0px" y="0px"
	 viewBox="0 0 55.6 57.7" style="enable-background:new 0 0 55.6 57.7;" xml:space="preserve">
<style type="text/css">
	.st0{fill:url(#SVGID_1_);}
	.st1{fill:url(#SVGID_2_);}
	.st2{fill:url(#SVGID_3_);}
	.st3{fill:#FFFFFF;}
</style>
<g>
	
		<linearGradient id="SVGID_1_" gradientUnits="userSpaceOnUse" x1="1.1" y1="30" x2="55.5811" y2="30" gradientTransform="matrix(1 0 0 -1 0 60)">
		<stop  offset="2.016760e-02" style="stop-color:#0B6AF8"/>
		<stop  offset="0.3065" style="stop-color:#325BF5"/>
		<stop  offset="0.9445" style="stop-color:#9334EE"/>
		<stop  offset="0.9944" style="stop-color:#9B31ED"/>
	</linearGradient>
	<ellipse class="st0" cx="28.3" cy="30" rx="27.2" ry="27.8"/>
	
		<linearGradient id="SVGID_2_" gradientUnits="userSpaceOnUse" x1="-7.2257" y1="-2.2257" x2="52.7817" y2="57.7817" gradientTransform="matrix(1 0 0 -1 0 60)">
		<stop  offset="0.1487" style="stop-color:#F80B37"/>
		<stop  offset="0.2184" style="stop-color:#F81435"/>
		<stop  offset="0.3345" style="stop-color:#F92E31"/>
		<stop  offset="0.4825" style="stop-color:#FA572A"/>
		<stop  offset="0.6568" style="stop-color:#FB9121"/>
		<stop  offset="0.8342" style="stop-color:#FCD316"/>
	</linearGradient>
	<ellipse class="st1" cx="27.2" cy="27.8" rx="27.2" ry="27.8"/>
</g>
<g>
	<g>
		<linearGradient id="SVGID_3_" gradientUnits="userSpaceOnUse" x1="13.3103" y1="29.8868" x2="41.859" y2="29.8868">
			<stop  offset="2.016760e-02" style="stop-color:#0B6AF8"/>
			<stop  offset="0.3065" style="stop-color:#325BF5"/>
			<stop  offset="0.9445" style="stop-color:#9334EE"/>
			<stop  offset="0.9944" style="stop-color:#9B31ED"/>
		</linearGradient>
		<path class="st2" d="M41.6,29.2L37,24.7c-0.5-0.5-1.3-0.1-1.3,0.6v2.6h-6.2v-6.1h2.6c0.7,0,1-0.8,0.5-1.3l-4.6-4.6
			c-0.3-0.3-0.8-0.3-1.1,0l-4.6,4.6c-0.5,0.5-0.1,1.3,0.6,1.3h2.6v6.1h-6.2v-2.6c0-0.7-0.8-1-1.3-0.5l-4.6,4.6
			c-0.3,0.3-0.3,0.8,0,1.1l4.6,4.6c0.5,0.5,1.3,0.1,1.3-0.6v-2.6h6.2V38H23c-0.7,0-1,0.8-0.5,1.3l4.6,4.6c0.3,0.3,0.8,0.3,1.1,0
			l4.6-4.6c0.5-0.5,0.1-1.3-0.6-1.3h-2.6v-6.3h6.2v2.6c0,0.7,0.8,1,1.3,0.5l4.6-4.6C41.9,30,41.9,29.6,41.6,29.2z M27.6,29.9
			L27.6,29.9L27.6,29.9L27.6,29.9L27.6,29.9z"/>
	</g>
	<path class="st3" d="M40.9,27.2l-4.6-4.6c-0.5-0.5-1.3-0.1-1.3,0.6v2.6h-6.2v-6.1h2.6c0.7,0,1-0.8,0.5-1.3l-4.6-4.6
		c-0.3-0.3-0.8-0.3-1.1,0l-4.6,4.6c-0.5,0.5-0.1,1.3,0.6,1.3h2.6v6.1h-6.2v-2.6c0-0.7-0.8-1-1.3-0.5l-4.6,4.6
		c-0.3,0.3-0.3,0.8,0,1.1l4.6,4.6c0.5,0.5,1.3,0.1,1.3-0.6v-2.6h6.2v6.3h-2.6c-0.7,0-1,0.8-0.5,1.3l4.6,4.6c0.3,0.3,0.8,0.3,1.1,0
		l4.6-4.6c0.5-0.5,0.1-1.3-0.6-1.3h-2.6v-6.3h6.2v2.6c0,0.7,0.8,1,1.3,0.5l4.6-4.6C41.2,28,41.2,27.5,40.9,27.2z M26.8,27.8
		L26.8,27.8L26.8,27.8L26.8,27.8L26.8,27.8z"/>
</g>
</svg>
