<?xml version="1.0" encoding="utf-8"?>
<!-- Generator: Adobe Illustrator 23.0.2, SVG Export Plug-In . SVG Version: 6.00 Build 0)  -->
<svg version="1.1" id="Layer_1" xmlns="http://www.w3.org/2000/svg" xmlns:xlink="http://www.w3.org/1999/xlink" x="0px" y="0px"
	 viewBox="0 0 47.3 32.9" style="enable-background:new 0 0 47.3 32.9;" xml:space="preserve">
<style type="text/css">
	.st0{display:none;}
	.st1{display:inline;fill:url(#SVGID_1_);}
	.st2{display:inline;fill:#F7931E;}
	.st3{fill:url(#SVGID_2_);}
	.st4{fill:#F7931E;}
</style>
<g class="st0">
	<linearGradient id="SVGID_1_" gradientUnits="userSpaceOnUse" x1="4.0057" y1="15.2372" x2="44.5534" y2="15.2372">
		<stop  offset="2.016760e-02" style="stop-color:#0B6AF8"/>
		<stop  offset="0.3065" style="stop-color:#325BF5"/>
		<stop  offset="0.9445" style="stop-color:#9334EE"/>
		<stop  offset="0.9944" style="stop-color:#9B31ED"/>
	</linearGradient>
	<path class="st1" d="M44.4,14.6c-0.1-0.1-1.7-3.1-5-6.2c-4.4-4-9.6-6.2-15.1-6.2c-5.6,0-10.8,2.1-15.2,6.2c-3.3,3-4.9,6.1-5,6.2
		C4,15.1,4,15.6,4.2,16c0.1,0.1,1.7,3.1,4.9,6.1c4.3,4,9.5,6.1,15,6.1c5.7,0,11.1-2.1,15.4-6.1c3.3-3,4.8-6,4.9-6.1
		C44.6,15.5,44.6,15,44.4,14.6z M37.6,20c-3.9,3.6-8.4,5.4-13.5,5.4c-4.9,0-9.3-1.8-13.1-5.3c-2.1-1.9-3.4-3.8-4-4.8
		c0.6-1,2-2.9,4.1-4.9c1.4-1.3,2.9-2.4,4.5-3.2c-0.9,1.5-1.5,3.3-1.5,5.3c0,5.6,4.5,10.1,10.1,10.1c5.6,0,10.1-4.5,10.1-10.1
		c0-2-0.6-3.8-1.5-5.4c1.6,0.8,3.2,1.9,4.6,3.3c2.1,1.9,3.5,3.9,4.1,4.9C41,16.3,39.7,18.2,37.6,20z"/>
	<path class="st2" d="M43,12.4c-0.1-0.1-1.7-3.1-5-6.2C33.7,2.1,28.5,0,23,0C17.4,0,12.2,2.1,7.8,6.2c-3.3,3-4.9,6.1-5,6.2
		c-0.2,0.4-0.2,0.9,0,1.3c0.1,0.1,1.7,3.1,4.9,6.1c4.3,4,9.5,6.1,15,6.1c5.7,0,11.1-2.1,15.4-6.1c3.3-3,4.8-6,4.9-6.1
		C43.3,13.2,43.3,12.8,43,12.4z M18.2,4.1c2.6-1.9,5.9-1.2,6-1.1c0.8,0.2,1.3,1,1.1,1.8c-0.2,0.8-1,1.3-1.8,1.1c0,0-1.4-0.3-2.6,0.1
		c-0.1,0.1-0.2,0.1-0.4,0.2c-0.5,0.3-1,0.7-1.3,1.2c-0.4,0.7-0.7,1.5-0.7,2.6c0,0.2-0.1,0.5-0.2,0.7c-0.1,0.5-0.5,0.9-1.1,0.9
		c-0.2,0-0.4-0.1-0.6-0.2c-0.7-0.2-1.2-0.8-1.1-1.5C15.7,7.2,16.6,5.3,18.2,4.1z M36.3,17.8c-3.9,3.6-8.4,5.4-13.5,5.4
		c-4.9,0-9.3-1.8-13.1-5.3c-2.1-1.9-3.4-3.8-4-4.8c0.6-1,2-2.9,4.1-4.9c1.4-1.3,2.9-2.4,4.5-3.2c-0.9,1.5-1.5,3.3-1.5,5.3
		c0,5.6,4.5,10.1,10.1,10.1c5.6,0,10.1-4.5,10.1-10.1c0-2-0.6-3.8-1.5-5.4c1.6,0.8,3.2,1.9,4.6,3.3c2.1,1.9,3.5,3.9,4.1,4.9
		C39.6,14,38.3,15.9,36.3,17.8z"/>
</g>
<g>
	<linearGradient id="SVGID_2_" gradientUnits="userSpaceOnUse" x1="2" y1="23.2747" x2="47.2852" y2="23.2747">
		<stop  offset="2.016760e-02" style="stop-color:#0B6AF8"/>
		<stop  offset="0.3065" style="stop-color:#325BF5"/>
		<stop  offset="0.9445" style="stop-color:#9334EE"/>
		<stop  offset="0.9944" style="stop-color:#9B31ED"/>
	</linearGradient>
	<path class="st3" d="M46.9,17.5L45,15.7c0,0,0,0,0,0c0.3-0.7,0.1-1.5-0.6-1.8c-0.7-0.3-1.5-0.1-1.9,0.6c0,0-1.4,2.7-4.3,5.4
		c-0.6,0.5-1.1,1-1.7,1.5c0,0-0.1,0-0.1,0.1c-3.4,2.6-7.3,3.9-11.5,3.9c-4.2,0-8.1-1.3-11.5-3.9c0,0,0,0-0.1,0
		c-0.6-0.4-1.1-0.9-1.7-1.4c-2.9-2.7-4.4-5.5-4.4-5.5c-0.3-0.7-1.2-0.9-1.9-0.6c-0.7,0.3-0.9,1.2-0.6,1.8c0,0,0,0.1,0.1,0.2
		l-2.3,1.6c-0.6,0.4-0.8,1.3-0.3,1.9c0.3,0.4,0.7,0.6,1.1,0.6c0.3,0,0.5-0.1,0.8-0.2l2.2-1.6c0.8,1.1,1.9,2.4,3.3,3.7
		c0.3,0.2,0.5,0.5,0.8,0.7l-2,2c-0.5,0.5-0.5,1.4,0,1.9c0.3,0.3,0.6,0.4,1,0.4c0.4,0,0.7-0.1,1-0.4l2.3-2.2c1.2,0.8,2.4,1.5,3.7,2
		l-1.4,3c-0.3,0.7,0,1.5,0.7,1.8c0.2,0.1,0.4,0.1,0.6,0.1c0.5,0,1-0.3,1.3-0.8l1.4-3.2c1.5,0.4,3.1,0.7,4.6,0.8v3.5
		c0,0.8,0.6,1.4,1.4,1.4c0.8,0,1.4-0.6,1.4-1.4V28c1.8-0.1,3.5-0.4,5.2-1l1,3.2c0.2,0.6,0.7,1,1.3,1c0.1,0,0.3,0,0.4-0.1
		c0.7-0.2,1.1-1,0.9-1.7L34.1,26c1.1-0.5,2.1-1.1,3.1-1.8l2.3,2.3c0.3,0.3,0.6,0.4,1,0.4c0.4,0,0.7-0.1,1-0.4c0.5-0.5,0.5-1.4,0-1.9
		l-2.1-2.1c0.3-0.2,0.5-0.5,0.8-0.7c1.4-1.3,2.5-2.7,3.3-3.8l1.4,1.4c0.3,0.3,0.6,0.4,1,0.4s0.7-0.1,1-0.4
		C47.4,18.9,47.4,18.1,46.9,17.5z"/>
	<path class="st4" d="M44.9,15.5L43,13.7c0,0,0,0,0,0c0.3-0.7,0.1-1.5-0.6-1.8c-0.7-0.3-1.5-0.1-1.9,0.6c0,0-1.4,2.7-4.3,5.4
		c-0.6,0.5-1.1,1-1.7,1.5c0,0-0.1,0-0.1,0.1c-3.4,2.6-7.3,3.9-11.5,3.9c-4.2,0-8.1-1.3-11.5-3.9c0,0,0,0-0.1,0
		c-0.6-0.4-1.1-0.9-1.7-1.4c-2.9-2.7-4.4-5.5-4.4-5.5c-0.3-0.7-1.2-0.9-1.9-0.6c-0.7,0.3-0.9,1.2-0.6,1.8c0,0,0,0.1,0.1,0.2
		l-2.3,1.6c-0.6,0.4-0.8,1.3-0.3,1.9c0.3,0.4,0.7,0.6,1.1,0.6c0.3,0,0.5-0.1,0.8-0.2l2.2-1.6c0.8,1.1,1.9,2.4,3.3,3.7
		c0.3,0.2,0.5,0.5,0.8,0.7l-2,2c-0.5,0.5-0.5,1.4,0,1.9c0.3,0.3,0.6,0.4,1,0.4c0.4,0,0.7-0.1,1-0.4l2.3-2.2c1.2,0.8,2.4,1.5,3.7,2
		l-1.4,3c-0.3,0.7,0,1.5,0.7,1.8c0.2,0.1,0.4,0.1,0.6,0.1c0.5,0,1-0.3,1.3-0.8l1.4-3.2c1.5,0.4,3.1,0.7,4.6,0.8v3.5
		c0,0.8,0.6,1.4,1.4,1.4c0.8,0,1.4-0.6,1.4-1.4V26c1.8-0.1,3.5-0.4,5.2-1l1,3.2c0.2,0.6,0.7,1,1.3,1c0.1,0,0.3,0,0.4-0.1
		c0.7-0.2,1.1-1,0.9-1.7L32.1,24c1.1-0.5,2.1-1.1,3.1-1.8l2.3,2.3c0.3,0.3,0.6,0.4,1,0.4c0.4,0,0.7-0.1,1-0.4c0.5-0.5,0.5-1.4,0-1.9
		l-2.1-2.1c0.3-0.2,0.5-0.5,0.8-0.7c1.4-1.3,2.5-2.7,3.3-3.8l1.4,1.4c0.3,0.3,0.6,0.4,1,0.4s0.7-0.1,1-0.4
		C45.4,16.9,45.4,16.1,44.9,15.5z"/>
</g>
</svg>
