<?xml version="1.0" encoding="utf-8"?>
<!-- Generator: Adobe Illustrator 23.0.2, SVG Export Plug-In . SVG Version: 6.00 Build 0)  -->
<svg version="1.1" id="Layer_1" xmlns="http://www.w3.org/2000/svg" xmlns:xlink="http://www.w3.org/1999/xlink" x="0px" y="0px"
	 viewBox="0 0 8.23 7.63" style="enable-background:new 0 0 8.23 7.63;" xml:space="preserve">
<style type="text/css">
	.st0{fill:#515151;}
</style>
<g>
	<path class="st0" d="M1.35,7.25L1.35,7.25C1.32,7.28,1.28,7.3,1.25,7.32C1.22,7.33,1.18,7.34,1.14,7.34H0.56
		C0.54,7.35,0.52,7.35,0.52,7.35c-0.01,0-0.02,0-0.06-0.01c-0.03,0-0.06-0.01-0.1-0.02S0.3,7.31,0.27,7.3S0.23,7.27,0.23,7.25
		c0-0.03,0.02-0.07,0.06-0.12L3.6,3.73c-0.46-0.48-0.9-0.94-1.31-1.37C1.87,1.92,1.47,1.51,1.08,1.11L0.49,0.5h0.01
		C0.45,0.45,0.43,0.41,0.43,0.38c0-0.04,0.04-0.06,0.11-0.08C0.62,0.28,0.7,0.27,0.78,0.27h0.51c0.06,0,0.1,0.01,0.13,0.03
		c0.03,0.02,0.07,0.05,0.12,0.09l2.61,2.82C4.6,2.74,5.04,2.27,5.47,1.81c0.43-0.46,0.88-0.93,1.32-1.39
		C6.88,0.35,6.98,0.3,7.1,0.29c0.12-0.01,0.23-0.02,0.34-0.02c0.11,0,0.2,0,0.3,0.01s0.14,0.03,0.15,0.08
		c0,0.03-0.02,0.08-0.07,0.14L7.23,1.11c-0.2,0.21-0.4,0.41-0.6,0.62c-0.2,0.21-0.4,0.41-0.61,0.63S5.6,2.79,5.38,3.01
		C5.17,3.24,4.94,3.48,4.7,3.73c0.55,0.57,1.1,1.13,1.65,1.71C6.91,6,7.46,6.57,8.01,7.14l0.02,0.03C8.05,7.2,8.06,7.23,8.06,7.26
		c-0.01,0.03-0.04,0.05-0.1,0.07C7.9,7.35,7.85,7.35,7.8,7.35c-0.02,0-0.03,0-0.04-0.01H7.17c-0.07,0-0.14-0.03-0.21-0.09L4.15,4.23
		L1.35,7.25z"/>
</g>
</svg>
